<?xml version="1.0" standalone="no"?>
<!DOCTYPE svg PUBLIC "-//W3C//DTD SVG 20010904//EN"
 "http://www.w3.org/TR/2001/REC-SVG-20010904/DTD/svg10.dtd">
<svg version="1.0" xmlns="http://www.w3.org/2000/svg"
 width="178.000000pt" height="178.000000pt" viewBox="0 0 178.000000 178.000000"
 preserveAspectRatio="xMidYMid meet">
<metadata>
Created by potrace 1.11, written by Peter Selinger 2001-2013
</metadata>
<g transform="translate(0.000000,178.000000) scale(0.100000,-0.100000)"
fill="#000000" stroke="none">
<path d="M0 890 l0 -890 890 0 890 0 0 890 0 890 -890 0 -890 0 0 -890z m642
140 c49 -112 88 -206 88 -207 0 -2 -26 -3 -58 -3 l-59 0 -16 40 -15 40 -82 0
-82 0 -15 -40 c-16 -40 -16 -40 -70 -40 -29 0 -53 4 -53 9 0 5 31 82 69 172
38 90 76 181 85 202 15 38 16 38 68 35 l53 -3 87 -205z m214 130 c27 -44 51
-80 54 -80 3 0 27 37 54 81 l48 80 57 -3 56 -3 3 -202 2 -203 -54 0 -55 0 -3
118 -3 117 -50 -77 c-27 -43 -53 -78 -57 -78 -4 0 -28 35 -55 77 l-48 78 -3
-118 c-2 -78 -6 -117 -13 -115 -6 2 -31 48 -55 103 -42 97 -44 103 -44 203 l0
102 59 0 59 0 48 -80z m570 57 c59 -30 69 -116 19 -155 l-24 -19 30 -22 c41
-30 53 -66 39 -114 -17 -59 -63 -77 -200 -77 l-110 0 0 206 0 207 108 -5 c72
-3 117 -10 138 -21z m-866 -553 c0 -48 -3 -65 -12 -62 -8 3 -14 28 -16 66 -2
51 0 62 13 62 12 0 15 -13 15 -66z m58 4 c-2 -38 -8 -63 -15 -66 -10 -3 -13
14 -13 62 0 53 3 66 15 66 13 0 15 -11 13 -62z m152 41 c0 -16 4 -19 21 -14
13 4 27 0 40 -11 40 -36 12 -84 -46 -82 l-35 1 0 64 c0 35 4 63 10 63 6 0 10
-9 10 -21z m490 11 c0 -5 -4 -10 -10 -10 -5 0 -10 5 -10 10 0 6 5 10 10 10 6
0 10 -4 10 -10z m-58 -20 c19 -17 19 -20 5 -26 -19 -7 -23 -39 -7 -49 17 -10
11 -25 -10 -25 -16 0 -20 7 -20 34 0 19 -4 38 -10 41 -6 4 -5 13 3 25 15 24
13 24 39 0z m-818 -6 c23 -9 9 -24 -20 -24 -21 0 -25 -4 -22 -22 2 -16 10 -23
25 -23 28 0 40 -13 19 -21 -52 -20 -97 37 -61 76 19 21 33 24 59 14z m110 -7
c22 -16 18 -65 -5 -80 -47 -29 -101 32 -64 73 21 23 44 25 69 7z m214 1 c7 -7
12 -29 12 -49 0 -36 -1 -37 -37 -36 -33 2 -38 5 -38 27 0 19 6 26 30 31 l30 7
-27 1 c-27 1 -35 10 -21 24 10 11 38 8 51 -5z m242 -8 c11 -11 20 -23 20 -28
0 -19 -33 -52 -52 -52 -25 0 -58 27 -58 47 0 18 36 53 55 53 8 0 24 -9 35 -20z
m90 7 c0 -5 -7 -15 -15 -23 -8 -9 -15 -26 -15 -40 0 -13 -4 -24 -10 -24 -5 0
-10 22 -10 49 0 46 2 49 25 47 14 0 25 -5 25 -9z m81 3 c14 -8 19 -21 19 -50
l0 -39 -42 2 c-36 2 -44 6 -46 24 -3 18 4 24 30 32 32 9 32 9 6 10 -27 1 -35
10 -21 24 9 10 31 9 54 -3z m139 -40 c0 -27 -4 -50 -10 -50 -5 0 -10 23 -10
50 0 28 5 50 10 50 6 0 10 -22 10 -50z m60 18 l12 -33 9 33 c5 17 16 32 24 32
19 0 19 1 -5 -54 -10 -25 -24 -46 -30 -46 -6 0 -20 21 -30 46 -24 54 -24 54
-6 54 8 0 19 -15 26 -32z m144 16 c26 -25 20 -44 -14 -44 -16 0 -30 -5 -30
-11 0 -7 10 -9 26 -5 19 5 25 3 22 -6 -6 -18 -46 -22 -64 -8 -20 17 -18 67 4
79 24 15 38 13 56 -5z"/>
<path d="M474 1046 c-12 -30 -19 -57 -16 -60 8 -9 94 -7 90 2 -1 4 -12 31 -22
60 -11 29 -22 52 -25 52 -4 0 -16 -25 -27 -54z"/>
<path d="M1240 1110 l0 -40 46 0 c55 0 84 14 84 40 0 26 -29 40 -84 40 l-46 0
0 -40z"/>
<path d="M1242 958 c3 -40 5 -43 34 -46 18 -2 47 1 65 5 84 22 49 83 -48 83
l-54 0 3 -42z"/>
<path d="M779 664 c-10 -12 -9 -18 3 -31 19 -18 38 -10 38 17 0 24 -25 33 -41
14z"/>
<path d="M440 651 c0 -27 19 -36 37 -18 18 18 9 37 -18 37 -12 0 -19 -7 -19
-19z"/>
<path d="M660 630 c0 -5 6 -10 14 -10 8 0 18 5 21 10 3 6 -3 10 -14 10 -12 0
-21 -4 -21 -10z"/>
<path d="M902 671 c-19 -11 -11 -45 11 -49 9 -2 20 4 23 13 9 21 -16 47 -34
36z"/>
<path d="M1080 630 c0 -5 7 -10 15 -10 8 0 15 5 15 10 0 6 -7 10 -15 10 -8 0
-15 -4 -15 -10z"/>
<path d="M1425 670 c-3 -5 1 -10 10 -10 9 0 13 5 10 10 -3 6 -8 10 -10 10 -2
0 -7 -4 -10 -10z"/>
</g>
</svg>
